<?xml version="1.0" ?>
<!-- Uploaded to: SVG Repo, www.svgrepo.com, Generator: SVG Repo Mixer Tools -->
<svg width="800px" height="800px" viewBox="0 0 512 512" baseProfile="tiny" overflow="visible" version="1.1" xml:space="preserve" xmlns="http://www.w3.org/2000/svg" xmlns:xlink="http://www.w3.org/1999/xlink">
<g id="Layer_1"/>
<g id="Layer_2"/>
<g id="Layer_3">
<g>
<path d="M330.691,89.052c-2.545-2.692-7.03-1.729-8.238,1.773c-5.866,16.999-21.32,57.071-38.09,61.809    c0,0-42.374,20.251-57.983-98.847c-0.476-3.632-4.612-5.487-7.648-3.435c-23.725,16.034-101.88,75.807-92.507,161.945    c0.417,3.833-3.47,6.67-6.967,5.041c-8.56-3.987-22.25-12.229-32.861-27.422c-2.463-3.526-7.952-2.432-8.85,1.774    c-6.927,32.439-20.716,122.836,28.772,166.053c0.886,0.774,2.035,1.185,3.212,1.185h234.633c1.4,0,2.739-0.587,3.669-1.634    c18.654-21.006,37.502-51.84,45.464-95.056C408.574,179.296,349.712,109.176,330.691,89.052z" fill="#FF9000"/>
<path d="M288.573,215.6c-2.472-2.78-7.02-1.946-8.306,1.545c-3.795,10.3-11.317,27.755-19.405,30.039    c0,0-22.092,10.558-30.912-49.958c-0.531-3.645-4.75-5.433-7.74-3.28c-14.966,10.777-49.535,40.284-47.327,81.62    c0.211,3.949-4.003,6.595-7.406,4.578c-3.419-2.027-7.424-4.997-11.083-9.217c-2.697-3.111-7.799-1.682-8.542,2.366    c-3.728,20.297-7.937,62.591,15.784,84.292c0.928,0.849,2.127,1.342,3.385,1.342h125.207c1.438,0,2.798-0.63,3.74-1.715    c9.863-11.355,19.688-27.813,23.897-50.659C327.532,264.951,300.758,229.303,288.573,215.6z" fill="#FFBE73"/>
<g>
<path d="M264.362,152.633c0.914-0.258,1.822-0.639,2.727-1.098c-13.574-6.444-31.65-28.621-40.71-97.749     c-0.476-3.632-4.612-5.487-7.648-3.436c-3.076,2.079-7.073,4.9-11.67,8.411C223.183,172.305,264.362,152.633,264.362,152.633z" fill="#F88000"/>
<path d="M99.256,217.338c3.497,1.629,7.384-1.208,6.967-5.042c-0.099-0.91-0.174-1.813-0.254-2.718     c-6.515-4.64-13.541-11.025-19.574-19.663c-2.463-3.526-7.952-2.432-8.85,1.774c-0.577,2.701-1.201,5.811-1.833,9.255     C84.173,209.316,93.058,214.451,99.256,217.338z" fill="#F88000"/>
<path d="M330.691,89.052c-2.545-2.692-7.03-1.729-8.238,1.772c-0.801,2.321-1.786,5.083-2.924,8.116     c23.813,28.071,67.125,90.783,53.765,163.298c-7.962,43.217-26.81,74.05-45.464,95.056c-0.929,1.047-2.268,1.634-3.669,1.634h20     c1.4,0,2.739-0.587,3.669-1.634c18.655-21.006,37.502-51.839,45.464-95.056C408.574,179.296,349.712,109.176,330.691,89.052z" fill="#F88000"/>
</g>
<g>
<path d="M240.862,247.184c1.974-0.558,3.914-2.023,5.774-4.064c-6.105-5.912-12.73-18.752-16.686-45.894     c-0.531-3.645-4.75-5.433-7.74-3.28c-3.103,2.234-7.053,5.285-11.339,9.068C220.213,257.047,240.862,247.184,240.862,247.184z" fill="#FFB25A"/>
<path d="M147.477,280.145c3.403,2.017,7.617-0.629,7.406-4.578c-0.105-1.975-0.102-3.914-0.046-5.833     c-2.754-1.344-6.368,0.202-6.985,3.561c-0.358,1.951-0.721,4.108-1.062,6.428C147.019,279.863,147.252,280.012,147.477,280.145z" fill="#FFB25A"/>
<path d="M288.573,215.6c-2.472-2.78-7.02-1.946-8.306,1.545c-0.938,2.545-2.104,5.528-3.449,8.61     c12.918,17.396,29.25,47.146,23.05,80.799c-4.209,22.846-14.034,39.303-23.897,50.659c-0.943,1.085-2.302,1.715-3.74,1.715h20     c1.438,0,2.798-0.63,3.74-1.715c9.863-11.355,19.688-27.813,23.897-50.659C327.532,264.951,300.758,229.303,288.573,215.6z" fill="#FFB25A"/>
</g>
<path d="M209.21,358.928H449.5V462.5H209.21c-30.376,0-55-23.185-55-51.786    C154.21,382.114,178.835,358.928,209.21,358.928z" fill="#AF602D"/>
<ellipse cx="449.5" cy="410.714" fill="#D97C41" rx="55" ry="51.786"/>
<ellipse cx="449.5" cy="410.714" fill="#AF602D" rx="15.686" ry="14.769"/>
<path d="M62.5,358.928h240.29V462.5H62.5c-30.376,0-55-23.185-55-51.786C7.5,382.114,32.124,358.928,62.5,358.928z    " fill="#AF602D"/>
<ellipse cx="302.79" cy="410.714" fill="#D97C41" rx="55" ry="51.786"/>
<path d="M449.5,358.928c-3.417,0-6.756,0.309-10,0.87c25.598,4.43,45,25.533,45,50.916s-19.401,46.486-45,50.916    c3.244,0.562,6.583,0.87,10,0.87c30.375,0,55-23.185,55-51.786S479.876,358.928,449.5,358.928z" fill="#C76D33"/>
<path d="M302.79,358.928c-3.417,0-6.756,0.309-10,0.87c25.598,4.43,45,25.533,45,50.916s-19.401,46.486-45,50.916    c3.244,0.562,6.583,0.87,10,0.87c30.375,0,55-23.185,55-51.786S333.165,358.928,302.79,358.928z" fill="#C76D33"/>
<ellipse cx="302.79" cy="410.714" fill="#AF602D" rx="15.686" ry="14.769"/>
</g>
</g>
<g id="Layer_4"/>
<g id="Layer_5"/>
<g id="Layer_6"/>
<g id="Layer_7"/>
<g id="Layer_8"/>
<g id="Layer_9"/>
<g id="Layer_10"/>
<g id="Layer_11"/>
<g id="Layer_12"/>
<g id="Layer_13"/>
<g id="Layer_14"/>
<g id="Layer_15"/>
<g id="Layer_16"/>
<g id="Layer_17"/>
<g id="Layer_18"/>
<g id="Layer_19"/>
<g id="Layer_20"/>
<g id="Layer_21"/>
<g id="Layer_22"/>
<g id="Layer_23"/>
<g id="Layer_24"/>
<g id="Layer_25"/>
<g id="Layer_26"/>
<g id="Layer_27"/>
<g id="Layer_28"/>
<g id="Layer_29"/>
<g id="Layer_30"/>
<g id="Layer_31"/>
<g id="Layer_32"/>
<g id="Layer_33"/>
<g id="Layer_34"/>
<g id="Layer_35"/>
<g id="Layer_36"/>
<g id="Layer_37"/>
<g id="Layer_38"/>
<g id="Layer_39"/>
<g id="Layer_40"/>
<g id="Layer_41"/>
<g id="Layer_42"/>
<g id="Layer_43"/>
<g id="Layer_44"/>
<g id="Layer_45"/>
<g id="Layer_46"/>
<g id="Layer_47"/>
<g id="Layer_48"/>
<g id="Layer_49"/>
<g id="Layer_50">
<g>
<g>
<path d="M449.495,368.18h-240.29c-4.142,0-7.5-3.357-7.5-7.5s3.358-7.5,7.5-7.5h240.29c4.143,0,7.5,3.357,7.5,7.5     S453.637,368.18,449.495,368.18z"/>
</g>
<g>
<path d="M449.495,471.75h-240.29c-4.142,0-7.5-3.357-7.5-7.5s3.358-7.5,7.5-7.5h240.29c4.143,0,7.5,3.357,7.5,7.5     S453.637,471.75,449.495,471.75z"/>
</g>
<g>
<path d="M449.495,471.755c-34.462,0-62.499-26.596-62.499-59.286s28.037-59.286,62.499-59.286c34.463,0,62.5,26.596,62.5,59.286     S483.957,471.755,449.495,471.755z M449.495,368.183c-26.191,0-47.499,19.866-47.499,44.286s21.308,44.286,47.499,44.286     s47.5-19.866,47.5-44.286S475.686,368.183,449.495,368.183z"/>
</g>
<g>
<path d="M449.495,434.737c-12.784,0-23.186-9.989-23.186-22.269s10.401-22.27,23.186-22.27s23.186,9.99,23.186,22.27     S462.279,434.737,449.495,434.737z M449.495,405.199c-4.514,0-8.186,3.261-8.186,7.27c0,4.008,3.672,7.269,8.186,7.269     s8.186-3.261,8.186-7.269C457.68,408.46,454.008,405.199,449.495,405.199z"/>
</g>
<g>
<path d="M302.785,471.75H62.495c-34.462,0-62.5-26.593-62.5-59.28c0-32.692,28.038-59.29,62.5-59.29h240.29     c4.143,0,7.5,3.357,7.5,7.5s-3.357,7.5-7.5,7.5H62.495c-26.191,0-47.5,19.868-47.5,44.29c0,24.416,21.309,44.28,47.5,44.28     h240.29c4.143,0,7.5,3.357,7.5,7.5S306.927,471.75,302.785,471.75z"/>
</g>
<g>
<path d="M302.785,471.75c-34.463,0-62.5-26.593-62.5-59.28c0-32.692,28.037-59.29,62.5-59.29s62.5,26.598,62.5,59.29     C365.285,445.157,337.248,471.75,302.785,471.75z M302.785,368.18c-26.191,0-47.5,19.868-47.5,44.29     c0,24.416,21.309,44.28,47.5,44.28s47.5-19.864,47.5-44.28C350.285,388.048,328.976,368.18,302.785,368.18z M302.785,434.74     c-12.787,0-23.19-9.99-23.19-22.271c0-12.279,10.403-22.27,23.19-22.27s23.19,9.99,23.19,22.27     C325.975,424.75,315.572,434.74,302.785,434.74z M302.785,405.2c-4.517,0-8.19,3.261-8.19,7.27s3.674,7.271,8.19,7.271     s8.19-3.262,8.19-7.271S307.301,405.2,302.785,405.2z"/>
</g>
<g>
<path d="M344.156,368.183H109.523c-3.012,0-5.905-1.079-8.147-3.038c-51.859-45.287-39.075-136.257-31.171-173.267     c1.031-4.832,4.829-8.588,9.673-9.568c4.855-0.984,9.824,1.007,12.66,5.067c7.979,11.423,17.84,18.562,25.797,22.864     c-6.619-87.604,71.676-147.782,96.19-164.349c3.595-2.432,8.106-2.82,12.067-1.037c3.956,1.78,6.653,5.41,7.217,9.711     c8.762,66.857,25.702,85.824,35.02,91.181c6.596,3.79,11.64,2.11,12.365,1.836c0.428-0.225,0.626-0.272,1.123-0.413     c8.854-2.501,22.131-25.422,33.039-57.037c1.43-4.145,4.841-7.17,9.124-8.094c4.288-0.925,8.642,0.428,11.654,3.615l0,0     c19.168,20.279,80.47,93.17,64.529,179.697c-7.017,38.087-22.908,71.286-47.233,98.678     C351.087,366.669,347.707,368.183,344.156,368.183z M110.493,353.183h232.505c22.04-25.146,36.478-55.604,42.915-90.548     c13.948-75.714-37.33-141.05-57.797-163.566c-9.453,26.41-23.863,56.971-41.207,62.385c-2.801,1.138-12.727,4.273-24.768-2.262     c-20.724-11.25-35.062-44.384-42.64-98.51c-26.328,18.521-94.325,74.462-85.828,152.559c0.487,4.476-1.479,8.88-5.129,11.495     c-3.631,2.601-8.406,3.044-12.461,1.156c-9.09-4.234-21.675-11.955-32.353-25.267c-3.182,16.383-7.106,43.43-5.474,71.367     C80.396,308.611,91.239,335.92,110.493,353.183z M325.234,95.958L325.234,95.958L325.234,95.958z"/>
</g>
<g>
<path d="M292.224,368.183H167.016c-3.115,0-6.115-1.175-8.447-3.308c-25.957-23.746-22.481-67.32-18.099-91.181     c0.872-4.747,4.307-8.485,8.965-9.756c4.639-1.266,9.474,0.203,12.62,3.829c1.566,1.808,3.314,3.461,5.226,4.947     c0.438-42.348,35.174-72.034,50.541-83.1c3.549-2.557,8.073-3.062,12.102-1.354c4.03,1.708,6.812,5.312,7.442,9.638     c4.782,32.808,13.189,41.177,16.582,43.253c1.935,1.186,3.317,1.045,3.833,0.923c0.429-0.254,0.431-0.184,1.037-0.354     c1.479-0.478,7.317-6.175,14.406-25.414c1.521-4.127,5.01-7.079,9.333-7.896c4.335-0.824,8.68,0.66,11.615,3.96v0.001     c12.7,14.282,41.345,52.354,33.065,97.296c-3.838,20.829-12.454,39.07-25.611,54.218     C299.253,366.616,295.827,368.183,292.224,368.183z M168.027,353.183h123.018c10.958-12.927,18.169-28.475,21.44-46.233     c6.544-35.521-14.625-66.858-26.742-81.382c-10.35,26.17-19.118,29.502-22.487,30.485c-2.274,0.848-8.576,2.51-15.926-1.412     c-11.536-6.154-19.651-23.075-24.146-50.319c-15.179,11.67-42.677,37.779-40.816,72.6c0.247,4.624-2.053,8.981-6.003,11.373     c-3.91,2.368-8.783,2.391-12.718,0.057c-3.366-1.995-6.467-4.322-9.264-6.948C151.527,300.056,149.249,335.15,168.027,353.183z"/>
</g>
</g>
</g>
</svg>